<mxfile host="app.diagrams.net" modified="2023-10-17T15:42:02.018Z" agent="Mozilla/5.0 (Windows NT 10.0; Win64; x64) AppleWebKit/537.36 (KHTML, like Gecko) Chrome/117.0.0.0 Safari/537.36" etag="B0BtDGQoIEdCURextWLn" version="22.0.4" type="device">
  <diagram name="Page-1" id="pdIArzNAaK0YGo7IiWCU">
    <mxGraphModel dx="1050" dy="581" grid="1" gridSize="10" guides="1" tooltips="1" connect="1" arrows="1" fold="1" page="1" pageScale="1" pageWidth="850" pageHeight="1100" math="0" shadow="0">
      <root>
        <mxCell id="0" />
        <mxCell id="1" parent="0" />
        <mxCell id="HouYv5_amKxwgHcmpArk-2" value=":Abxervyer" style="shape=umlLifeline;perimeter=lifelinePerimeter;whiteSpace=wrap;html=1;container=1;dropTarget=0;collapsible=0;recursiveResize=0;outlineConnect=0;portConstraint=eastwest;newEdgeStyle={&quot;curved&quot;:0,&quot;rounded&quot;:0};" vertex="1" parent="1">
          <mxGeometry x="90" y="60" width="100" height="430" as="geometry" />
        </mxCell>
        <mxCell id="HouYv5_amKxwgHcmpArk-6" value="" style="html=1;points=[[0,0,0,0,5],[0,1,0,0,-5],[1,0,0,0,5],[1,1,0,0,-5]];perimeter=orthogonalPerimeter;outlineConnect=0;targetShapes=umlLifeline;portConstraint=eastwest;newEdgeStyle={&quot;curved&quot;:0,&quot;rounded&quot;:0};" vertex="1" parent="HouYv5_amKxwgHcmpArk-2">
          <mxGeometry x="40" y="80" width="20" height="320" as="geometry" />
        </mxCell>
        <mxCell id="HouYv5_amKxwgHcmpArk-3" value=":AncientWoodsWeatherController" style="shape=umlLifeline;perimeter=lifelinePerimeter;whiteSpace=wrap;html=1;container=1;dropTarget=0;collapsible=0;recursiveResize=0;outlineConnect=0;portConstraint=eastwest;newEdgeStyle={&quot;curved&quot;:0,&quot;rounded&quot;:0};" vertex="1" parent="1">
          <mxGeometry x="400" y="130" width="210" height="360" as="geometry" />
        </mxCell>
        <mxCell id="HouYv5_amKxwgHcmpArk-7" value="" style="html=1;points=[[0,0,0,0,5],[0,1,0,0,-5],[1,0,0,0,5],[1,1,0,0,-5]];perimeter=orthogonalPerimeter;outlineConnect=0;targetShapes=umlLifeline;portConstraint=eastwest;newEdgeStyle={&quot;curved&quot;:0,&quot;rounded&quot;:0};" vertex="1" parent="HouYv5_amKxwgHcmpArk-3">
          <mxGeometry x="95" y="75" width="25" height="255" as="geometry" />
        </mxCell>
        <mxCell id="HouYv5_amKxwgHcmpArk-4" value="" style="endArrow=blockThin;endFill=1;endSize=12;html=1;rounded=0;" edge="1" parent="1">
          <mxGeometry width="160" relative="1" as="geometry">
            <mxPoint x="150" y="150" as="sourcePoint" />
            <mxPoint x="400" y="150" as="targetPoint" />
          </mxGeometry>
        </mxCell>
        <mxCell id="HouYv5_amKxwgHcmpArk-8" value=":Weather" style="shape=umlLifeline;perimeter=lifelinePerimeter;whiteSpace=wrap;html=1;container=1;dropTarget=0;collapsible=0;recursiveResize=0;outlineConnect=0;portConstraint=eastwest;newEdgeStyle={&quot;curved&quot;:0,&quot;rounded&quot;:0};" vertex="1" parent="1">
          <mxGeometry x="720" y="190" width="100" height="300" as="geometry" />
        </mxCell>
        <mxCell id="HouYv5_amKxwgHcmpArk-9" value="" style="html=1;points=[[0,0,0,0,5],[0,1,0,0,-5],[1,0,0,0,5],[1,1,0,0,-5]];perimeter=orthogonalPerimeter;outlineConnect=0;targetShapes=umlLifeline;portConstraint=eastwest;newEdgeStyle={&quot;curved&quot;:0,&quot;rounded&quot;:0};" vertex="1" parent="HouYv5_amKxwgHcmpArk-8">
          <mxGeometry x="40" y="65" width="20" height="205" as="geometry" />
        </mxCell>
        <mxCell id="HouYv5_amKxwgHcmpArk-12" value="&amp;lt;&amp;lt;creates&amp;gt;&amp;gt;" style="text;html=1;align=center;verticalAlign=middle;resizable=0;points=[];autosize=1;strokeColor=none;fillColor=none;" vertex="1" parent="1">
          <mxGeometry x="205" y="120" width="90" height="30" as="geometry" />
        </mxCell>
        <mxCell id="HouYv5_amKxwgHcmpArk-15" value="" style="endArrow=blockThin;endFill=1;endSize=12;html=1;rounded=0;" edge="1" parent="1" source="HouYv5_amKxwgHcmpArk-7" target="HouYv5_amKxwgHcmpArk-9">
          <mxGeometry width="160" relative="1" as="geometry">
            <mxPoint x="525" y="345" as="sourcePoint" />
            <mxPoint x="730" y="345" as="targetPoint" />
            <Array as="points">
              <mxPoint x="590" y="330" />
            </Array>
          </mxGeometry>
        </mxCell>
        <mxCell id="HouYv5_amKxwgHcmpArk-16" value="weatherEffect(gameMap)" style="text;html=1;align=center;verticalAlign=middle;resizable=0;points=[];autosize=1;strokeColor=none;fillColor=none;" vertex="1" parent="1">
          <mxGeometry x="550" y="300" width="160" height="30" as="geometry" />
        </mxCell>
        <mxCell id="HouYv5_amKxwgHcmpArk-17" value="Loop" style="shape=umlFrame;whiteSpace=wrap;html=1;pointerEvents=0;" vertex="1" parent="1">
          <mxGeometry x="380" y="300" width="450" height="140" as="geometry" />
        </mxCell>
        <mxCell id="HouYv5_amKxwgHcmpArk-21" value="weatherTracker()" style="html=1;align=left;spacingLeft=2;endArrow=block;rounded=0;edgeStyle=orthogonalEdgeStyle;curved=0;rounded=0;" edge="1" parent="1">
          <mxGeometry x="-0.0476" y="10" relative="1" as="geometry">
            <mxPoint x="520" y="250" as="sourcePoint" />
            <Array as="points">
              <mxPoint x="560" y="250" />
              <mxPoint x="560" y="280" />
            </Array>
            <mxPoint x="525" y="280" as="targetPoint" />
            <mxPoint as="offset" />
          </mxGeometry>
        </mxCell>
        <mxCell id="HouYv5_amKxwgHcmpArk-24" value="" style="endArrow=blockThin;endFill=1;endSize=12;html=1;rounded=0;" edge="1" parent="1">
          <mxGeometry width="160" relative="1" as="geometry">
            <mxPoint x="150" y="242" as="sourcePoint" />
            <mxPoint x="495" y="242" as="targetPoint" />
          </mxGeometry>
        </mxCell>
        <mxCell id="HouYv5_amKxwgHcmpArk-25" value="processWeather(weatherMap)" style="text;html=1;align=center;verticalAlign=middle;resizable=0;points=[];autosize=1;strokeColor=none;fillColor=none;" vertex="1" parent="1">
          <mxGeometry x="210" y="210" width="180" height="30" as="geometry" />
        </mxCell>
        <mxCell id="HouYv5_amKxwgHcmpArk-26" value="[for each gameMap]" style="text;html=1;align=center;verticalAlign=middle;resizable=0;points=[];autosize=1;strokeColor=none;fillColor=none;" vertex="1" parent="1">
          <mxGeometry x="370" y="330" width="130" height="30" as="geometry" />
        </mxCell>
        <mxCell id="HouYv5_amKxwgHcmpArk-31" value="" style="endArrow=blockThin;endFill=1;endSize=12;html=1;rounded=0;" edge="1" parent="1">
          <mxGeometry width="160" relative="1" as="geometry">
            <mxPoint x="515" y="210" as="sourcePoint" />
            <mxPoint x="720" y="210" as="targetPoint" />
          </mxGeometry>
        </mxCell>
        <mxCell id="HouYv5_amKxwgHcmpArk-32" value="&amp;lt;&amp;lt;creates&amp;gt;&amp;gt;" style="text;html=1;align=center;verticalAlign=middle;resizable=0;points=[];autosize=1;strokeColor=none;fillColor=none;" vertex="1" parent="1">
          <mxGeometry x="570" y="180" width="90" height="30" as="geometry" />
        </mxCell>
      </root>
    </mxGraphModel>
  </diagram>
</mxfile>
